<mxfile host="app.diagrams.net" modified="2021-10-08T00:33:21.871Z" agent="5.0 (Windows)" etag="n9bsmQgmco-pC2KFMaUz" version="15.4.3" type="github" pages="2">
  <diagram id="DnF3vy6sy4xlpsxcsxmN" name="Page-1">
    <mxGraphModel dx="1021" dy="562" grid="1" gridSize="10" guides="1" tooltips="1" connect="1" arrows="1" fold="1" page="1" pageScale="1" pageWidth="850" pageHeight="1100" math="0" shadow="0">
      <root>
        <mxCell id="0" />
        <mxCell id="1" parent="0" />
        <mxCell id="2DhByDOusXWegDNaT3hc-2" value="states" style="edgeStyle=orthogonalEdgeStyle;rounded=0;orthogonalLoop=1;jettySize=auto;html=1;exitX=0.5;exitY=0;exitDx=0;exitDy=0;entryX=0.5;entryY=0;entryDx=0;entryDy=0;fontSize=20;" edge="1" parent="1" source="H_rxdb1aTonTBdJUyvjH-1" target="H_rxdb1aTonTBdJUyvjH-2">
          <mxGeometry relative="1" as="geometry" />
        </mxCell>
        <mxCell id="2DhByDOusXWegDNaT3hc-4" style="edgeStyle=orthogonalEdgeStyle;rounded=0;orthogonalLoop=1;jettySize=auto;html=1;fontSize=20;" edge="1" parent="1" source="H_rxdb1aTonTBdJUyvjH-1" target="H_rxdb1aTonTBdJUyvjH-2">
          <mxGeometry relative="1" as="geometry" />
        </mxCell>
        <mxCell id="2DhByDOusXWegDNaT3hc-5" value="reward" style="edgeLabel;html=1;align=center;verticalAlign=middle;resizable=0;points=[];fontSize=20;" vertex="1" connectable="0" parent="2DhByDOusXWegDNaT3hc-4">
          <mxGeometry x="-0.1015" relative="1" as="geometry">
            <mxPoint x="2" as="offset" />
          </mxGeometry>
        </mxCell>
        <mxCell id="H_rxdb1aTonTBdJUyvjH-1" value="Environment" style="rounded=0;whiteSpace=wrap;html=1;fontSize=20;" parent="1" vertex="1">
          <mxGeometry x="110" y="180" width="120" height="60" as="geometry" />
        </mxCell>
        <mxCell id="2DhByDOusXWegDNaT3hc-3" value="actions" style="edgeStyle=orthogonalEdgeStyle;rounded=0;orthogonalLoop=1;jettySize=auto;html=1;exitX=0.5;exitY=1;exitDx=0;exitDy=0;entryX=0.5;entryY=1;entryDx=0;entryDy=0;fontSize=20;" edge="1" parent="1" source="H_rxdb1aTonTBdJUyvjH-2" target="H_rxdb1aTonTBdJUyvjH-1">
          <mxGeometry relative="1" as="geometry" />
        </mxCell>
        <mxCell id="H_rxdb1aTonTBdJUyvjH-2" value="Agent" style="ellipse;whiteSpace=wrap;html=1;fontSize=20;" parent="1" vertex="1">
          <mxGeometry x="470" y="170" width="120" height="80" as="geometry" />
        </mxCell>
      </root>
    </mxGraphModel>
  </diagram>
  <diagram id="SvgfvnXw0DP0NolhxHKV" name="Page-2">
    <mxGraphModel dx="1021" dy="562" grid="1" gridSize="10" guides="1" tooltips="1" connect="1" arrows="1" fold="1" page="1" pageScale="1" pageWidth="850" pageHeight="1100" math="0" shadow="0">
      <root>
        <mxCell id="8OYhcQQxtjhwRe14Or-s-0" />
        <mxCell id="8OYhcQQxtjhwRe14Or-s-1" parent="8OYhcQQxtjhwRe14Or-s-0" />
        <mxCell id="8OYhcQQxtjhwRe14Or-s-36" value="" style="whiteSpace=wrap;html=1;aspect=fixed;dashed=1;" vertex="1" parent="8OYhcQQxtjhwRe14Or-s-1">
          <mxGeometry x="70" y="255" width="80" height="80" as="geometry" />
        </mxCell>
        <mxCell id="8OYhcQQxtjhwRe14Or-s-35" value="" style="whiteSpace=wrap;html=1;aspect=fixed;dashed=1;" vertex="1" parent="8OYhcQQxtjhwRe14Or-s-1">
          <mxGeometry x="490" y="255" width="80" height="80" as="geometry" />
        </mxCell>
        <mxCell id="8OYhcQQxtjhwRe14Or-s-14" style="edgeStyle=orthogonalEdgeStyle;rounded=0;orthogonalLoop=1;jettySize=auto;html=1;exitX=1;exitY=0.25;exitDx=0;exitDy=0;entryX=0;entryY=0.25;entryDx=0;entryDy=0;" edge="1" parent="8OYhcQQxtjhwRe14Or-s-1" source="8OYhcQQxtjhwRe14Or-s-2" target="8OYhcQQxtjhwRe14Or-s-5">
          <mxGeometry relative="1" as="geometry" />
        </mxCell>
        <mxCell id="8OYhcQQxtjhwRe14Or-s-15" style="edgeStyle=orthogonalEdgeStyle;rounded=0;orthogonalLoop=1;jettySize=auto;html=1;exitX=1;exitY=0.75;exitDx=0;exitDy=0;entryX=0;entryY=0.75;entryDx=0;entryDy=0;" edge="1" parent="8OYhcQQxtjhwRe14Or-s-1" source="8OYhcQQxtjhwRe14Or-s-2" target="8OYhcQQxtjhwRe14Or-s-5">
          <mxGeometry relative="1" as="geometry" />
        </mxCell>
        <mxCell id="8OYhcQQxtjhwRe14Or-s-2" value="" style="rounded=0;whiteSpace=wrap;html=1;" vertex="1" parent="8OYhcQQxtjhwRe14Or-s-1">
          <mxGeometry x="270" y="165" width="30" height="260" as="geometry" />
        </mxCell>
        <mxCell id="8OYhcQQxtjhwRe14Or-s-25" value="" style="edgeStyle=none;rounded=0;orthogonalLoop=1;jettySize=auto;html=1;" edge="1" parent="8OYhcQQxtjhwRe14Or-s-1" source="8OYhcQQxtjhwRe14Or-s-3" target="8OYhcQQxtjhwRe14Or-s-23">
          <mxGeometry relative="1" as="geometry" />
        </mxCell>
        <mxCell id="8OYhcQQxtjhwRe14Or-s-32" style="edgeStyle=none;rounded=0;orthogonalLoop=1;jettySize=auto;html=1;exitX=0.5;exitY=1;exitDx=0;exitDy=0;" edge="1" parent="8OYhcQQxtjhwRe14Or-s-1" source="8OYhcQQxtjhwRe14Or-s-3">
          <mxGeometry relative="1" as="geometry">
            <mxPoint x="440.17647058823536" y="470" as="targetPoint" />
          </mxGeometry>
        </mxCell>
        <mxCell id="8OYhcQQxtjhwRe14Or-s-3" value="" style="rounded=0;whiteSpace=wrap;html=1;" vertex="1" parent="8OYhcQQxtjhwRe14Or-s-1">
          <mxGeometry x="425" y="220" width="30" height="150" as="geometry" />
        </mxCell>
        <mxCell id="8OYhcQQxtjhwRe14Or-s-27" style="edgeStyle=none;rounded=0;orthogonalLoop=1;jettySize=auto;html=1;exitX=0.5;exitY=1;exitDx=0;exitDy=0;" edge="1" parent="8OYhcQQxtjhwRe14Or-s-1" source="8OYhcQQxtjhwRe14Or-s-4">
          <mxGeometry relative="1" as="geometry">
            <mxPoint x="204.88235294117658" y="470" as="targetPoint" />
          </mxGeometry>
        </mxCell>
        <mxCell id="8OYhcQQxtjhwRe14Or-s-4" value="" style="rounded=0;whiteSpace=wrap;html=1;" vertex="1" parent="8OYhcQQxtjhwRe14Or-s-1">
          <mxGeometry x="190" y="220" width="30" height="150" as="geometry" />
        </mxCell>
        <mxCell id="8OYhcQQxtjhwRe14Or-s-18" style="rounded=0;orthogonalLoop=1;jettySize=auto;html=1;exitX=1.045;exitY=0.177;exitDx=0;exitDy=0;exitPerimeter=0;" edge="1" parent="8OYhcQQxtjhwRe14Or-s-1" source="8OYhcQQxtjhwRe14Or-s-5" target="8OYhcQQxtjhwRe14Or-s-3">
          <mxGeometry relative="1" as="geometry" />
        </mxCell>
        <mxCell id="8OYhcQQxtjhwRe14Or-s-29" style="edgeStyle=none;rounded=0;orthogonalLoop=1;jettySize=auto;html=1;exitX=1;exitY=0.25;exitDx=0;exitDy=0;entryX=0;entryY=0.5;entryDx=0;entryDy=0;" edge="1" parent="8OYhcQQxtjhwRe14Or-s-1" source="8OYhcQQxtjhwRe14Or-s-5" target="8OYhcQQxtjhwRe14Or-s-3">
          <mxGeometry relative="1" as="geometry" />
        </mxCell>
        <mxCell id="8OYhcQQxtjhwRe14Or-s-5" value="" style="rounded=0;whiteSpace=wrap;html=1;" vertex="1" parent="8OYhcQQxtjhwRe14Or-s-1">
          <mxGeometry x="350" y="165" width="30" height="260" as="geometry" />
        </mxCell>
        <mxCell id="8OYhcQQxtjhwRe14Or-s-8" value="" style="endArrow=classic;html=1;" edge="1" parent="8OYhcQQxtjhwRe14Or-s-1">
          <mxGeometry width="50" height="50" relative="1" as="geometry">
            <mxPoint x="220" y="260" as="sourcePoint" />
            <mxPoint x="270" y="210" as="targetPoint" />
          </mxGeometry>
        </mxCell>
        <mxCell id="8OYhcQQxtjhwRe14Or-s-9" value="" style="endArrow=classic;html=1;" edge="1" parent="8OYhcQQxtjhwRe14Or-s-1">
          <mxGeometry width="50" height="50" relative="1" as="geometry">
            <mxPoint x="220" y="289.9999999999999" as="sourcePoint" />
            <mxPoint x="270" y="239.9999999999999" as="targetPoint" />
          </mxGeometry>
        </mxCell>
        <mxCell id="8OYhcQQxtjhwRe14Or-s-10" value="" style="endArrow=classic;html=1;" edge="1" parent="8OYhcQQxtjhwRe14Or-s-1">
          <mxGeometry width="50" height="50" relative="1" as="geometry">
            <mxPoint x="220" y="359.9999999999999" as="sourcePoint" />
            <mxPoint x="270" y="309.9999999999999" as="targetPoint" />
          </mxGeometry>
        </mxCell>
        <mxCell id="8OYhcQQxtjhwRe14Or-s-11" value="" style="endArrow=none;dashed=1;html=1;dashPattern=1 3;strokeWidth=2;" edge="1" parent="8OYhcQQxtjhwRe14Or-s-1">
          <mxGeometry width="50" height="50" relative="1" as="geometry">
            <mxPoint x="230" y="310" as="sourcePoint" />
            <mxPoint x="260" y="310" as="targetPoint" />
          </mxGeometry>
        </mxCell>
        <mxCell id="8OYhcQQxtjhwRe14Or-s-13" value="" style="endArrow=none;dashed=1;html=1;dashPattern=1 3;strokeWidth=2;" edge="1" parent="8OYhcQQxtjhwRe14Or-s-1">
          <mxGeometry width="50" height="50" relative="1" as="geometry">
            <mxPoint x="310" y="300" as="sourcePoint" />
            <mxPoint x="340" y="300" as="targetPoint" />
          </mxGeometry>
        </mxCell>
        <mxCell id="8OYhcQQxtjhwRe14Or-s-16" value="" style="endArrow=classic;html=1;" edge="1" parent="8OYhcQQxtjhwRe14Or-s-1">
          <mxGeometry width="50" height="50" relative="1" as="geometry">
            <mxPoint x="380" y="360" as="sourcePoint" />
            <mxPoint x="430" y="310" as="targetPoint" />
          </mxGeometry>
        </mxCell>
        <mxCell id="8OYhcQQxtjhwRe14Or-s-22" value="" style="edgeStyle=none;rounded=0;orthogonalLoop=1;jettySize=auto;html=1;" edge="1" parent="8OYhcQQxtjhwRe14Or-s-1" source="8OYhcQQxtjhwRe14Or-s-20" target="8OYhcQQxtjhwRe14Or-s-4">
          <mxGeometry relative="1" as="geometry" />
        </mxCell>
        <mxCell id="8OYhcQQxtjhwRe14Or-s-20" value="feature 1&lt;br&gt;feature 2&lt;br&gt;....&lt;br&gt;feature n" style="text;html=1;strokeColor=none;fillColor=none;align=center;verticalAlign=middle;whiteSpace=wrap;rounded=0;" vertex="1" parent="8OYhcQQxtjhwRe14Or-s-1">
          <mxGeometry x="80" y="285" width="60" height="20" as="geometry" />
        </mxCell>
        <mxCell id="8OYhcQQxtjhwRe14Or-s-23" value="safe&lt;br&gt;hazard 1&lt;br&gt;hazard 2&lt;br&gt;....&lt;br&gt;hazard n" style="text;html=1;strokeColor=none;fillColor=none;align=center;verticalAlign=middle;whiteSpace=wrap;rounded=0;" vertex="1" parent="8OYhcQQxtjhwRe14Or-s-1">
          <mxGeometry x="500" y="285" width="60" height="20" as="geometry" />
        </mxCell>
        <mxCell id="8OYhcQQxtjhwRe14Or-s-31" style="edgeStyle=none;rounded=0;orthogonalLoop=1;jettySize=auto;html=1;exitX=0.5;exitY=1;exitDx=0;exitDy=0;" edge="1" parent="8OYhcQQxtjhwRe14Or-s-1" source="8OYhcQQxtjhwRe14Or-s-28">
          <mxGeometry relative="1" as="geometry">
            <mxPoint x="324.8823529411766" y="470" as="targetPoint" />
          </mxGeometry>
        </mxCell>
        <mxCell id="8OYhcQQxtjhwRe14Or-s-28" value="" style="shape=partialRectangle;whiteSpace=wrap;html=1;bottom=1;right=1;left=1;top=0;fillColor=none;routingCenterX=-0.5;" vertex="1" parent="8OYhcQQxtjhwRe14Or-s-1">
          <mxGeometry x="260" y="380" width="130" height="60" as="geometry" />
        </mxCell>
        <mxCell id="8OYhcQQxtjhwRe14Or-s-30" value="" style="endArrow=none;dashed=1;html=1;dashPattern=1 3;strokeWidth=2;" edge="1" parent="8OYhcQQxtjhwRe14Or-s-1">
          <mxGeometry width="50" height="50" relative="1" as="geometry">
            <mxPoint x="390" y="310" as="sourcePoint" />
            <mxPoint x="410" y="310" as="targetPoint" />
            <Array as="points" />
          </mxGeometry>
        </mxCell>
        <mxCell id="8OYhcQQxtjhwRe14Or-s-37" value="Input layer" style="text;html=1;strokeColor=none;fillColor=none;align=center;verticalAlign=middle;whiteSpace=wrap;rounded=0;dashed=1;" vertex="1" parent="8OYhcQQxtjhwRe14Or-s-1">
          <mxGeometry x="172.5" y="480" width="65" height="20" as="geometry" />
        </mxCell>
        <mxCell id="8OYhcQQxtjhwRe14Or-s-38" value="Hidden layer" style="text;html=1;strokeColor=none;fillColor=none;align=center;verticalAlign=middle;whiteSpace=wrap;rounded=0;dashed=1;" vertex="1" parent="8OYhcQQxtjhwRe14Or-s-1">
          <mxGeometry x="286.25" y="480" width="77.5" height="20" as="geometry" />
        </mxCell>
        <mxCell id="8OYhcQQxtjhwRe14Or-s-39" value="Output layer" style="text;html=1;strokeColor=none;fillColor=none;align=center;verticalAlign=middle;whiteSpace=wrap;rounded=0;dashed=1;" vertex="1" parent="8OYhcQQxtjhwRe14Or-s-1">
          <mxGeometry x="403.75" y="480" width="72.5" height="20" as="geometry" />
        </mxCell>
      </root>
    </mxGraphModel>
  </diagram>
</mxfile>
